<svg width="38" height="44" viewBox="0 0 38 44" fill="none" xmlns="http://www.w3.org/2000/svg">
<path d="M17.6907 18.3687L10.5056 15.5018C10.4119 15.4644 10.3143 15.5464 10.3217 15.6571L10.4919 18.1726C10.4968 18.2454 10.5478 18.3046 10.613 18.3129L15.5043 18.9462C15.5989 18.9584 15.6543 19.0714 15.6117 19.1666L15.1408 20.2096C15.0776 20.3498 15.2227 20.492 15.3404 20.4052L17.7211 18.64C17.8148 18.5696 17.7971 18.4109 17.6907 18.3687Z" fill="#FE5F55"/>
<path d="M27.5849 15.5018L20.3993 18.3687C20.2929 18.4109 20.2753 18.5696 20.3694 18.6395L22.7501 20.4047C22.8678 20.492 23.0129 20.3493 22.9497 20.2091L22.4788 19.1661C22.4362 19.0714 22.4911 18.9584 22.5863 18.9457L27.4775 18.3124C27.5432 18.3041 27.5937 18.2449 27.5986 18.1721L27.7688 15.6566C27.7767 15.5464 27.6791 15.4644 27.5849 15.5018Z" fill="#FE5F55"/>
<path d="M30.3119 12.7955L19.1482 15.1018C19.0801 15.1159 19.0099 15.1159 18.9423 15.1018L7.77915 12.7955C7.55746 12.7499 7.33186 12.8557 7.22788 13.0551C7.19404 13.1197 6.40981 14.6606 6.98266 16.7175C7.50008 18.5764 8.92582 20.2149 11.225 21.5971C11.4438 21.7287 11.5414 22.0194 11.4531 22.2776L9.28532 28.6011C9.15093 28.9937 9.2402 29.4378 9.51338 29.7295L11.1907 31.5209C11.7591 32.128 12.5002 32.4445 13.2511 32.4445C13.5939 32.4445 13.9387 32.3785 14.2698 32.244C14.358 32.2081 14.4551 32.2139 14.5385 32.2615L18.6544 34.6004C18.8966 34.7382 19.1944 34.7382 19.4361 34.6004L23.552 32.261C23.6354 32.2135 23.7325 32.2081 23.8203 32.2435C24.8767 32.6721 26.0709 32.4056 26.8993 31.5209L28.5766 29.7295C28.8493 29.4378 28.9391 28.9942 28.8047 28.6011L26.6374 22.2781C26.5491 22.0199 26.6467 21.7291 26.8655 21.5976C29.1647 20.2154 30.5904 18.5764 31.1079 16.718C31.6802 14.6611 30.896 13.1202 30.8626 13.0556C30.7591 12.8562 30.5335 12.7499 30.3119 12.7955ZM14.1805 31.0841C13.4227 31.5306 12.4982 31.3869 11.8798 30.7269L11.0063 29.7936C10.6586 29.4223 10.6188 28.82 10.9141 28.3963L12.6988 25.8375C13.3693 24.8766 14.2727 24.1651 15.3115 23.7802C15.3899 23.7511 15.4689 23.7244 15.5479 23.6991C15.6597 23.6637 15.7794 23.6744 15.8853 23.7278C16.3424 23.9564 17.6612 24.6072 18.2537 24.8994C18.4332 24.9877 18.5484 25.1848 18.5484 25.4027V28.2642C18.5484 28.5084 18.4033 28.7224 18.1924 28.7923C18.007 28.8539 17.8255 28.936 17.6509 29.0388L14.1805 31.0841ZM22.0326 31.8858L19.4361 33.3613C19.1904 33.5006 18.8996 33.5006 18.6544 33.3613L16.0579 31.8858C15.8176 31.749 15.8147 31.369 16.0535 31.2282L18.1168 30.0124C18.698 29.6698 19.392 29.6698 19.9732 30.0124L22.0365 31.2282C22.2754 31.369 22.2729 31.7495 22.0326 31.8858ZM27.1764 28.3963C27.4717 28.82 27.4319 29.4223 27.0842 29.7936L26.2107 30.7269C25.5923 31.3869 24.6678 31.5306 23.91 31.0841L20.4396 29.0388C20.265 28.936 20.0835 28.8539 19.8981 28.7923C19.6873 28.7224 19.5421 28.5084 19.5421 28.2642V25.4027C19.5421 25.1852 19.6573 24.9877 19.8368 24.8994C20.4293 24.6072 21.7486 23.9564 22.2052 23.7278C22.3112 23.6749 22.4308 23.6642 22.5426 23.6991C22.6216 23.7239 22.7006 23.7511 22.779 23.7802C23.8178 24.1651 24.7212 24.8766 25.3917 25.8375L27.1764 28.3963ZM30.1588 16.3923C29.945 17.1606 29.5222 17.9066 28.9028 18.6094C28.124 19.4927 27.0293 20.3134 25.6496 21.0477C25.4191 21.1705 25.3088 21.4666 25.3961 21.733L26.5643 25.3095C26.609 25.4464 26.4456 25.5463 26.3652 25.4313L26.1774 25.1624C25.3863 24.0282 24.32 23.1886 23.0939 22.7338C23.0326 22.711 22.9708 22.6891 22.909 22.6688C22.8045 22.6338 22.7447 22.513 22.7746 22.397C22.8644 22.048 22.6971 21.6704 22.449 21.6622L19.2243 21.552C19.1051 21.5481 18.9854 21.5481 18.8662 21.552L15.6415 21.6622C15.3934 21.6709 15.2261 22.048 15.3159 22.397C15.3458 22.513 15.286 22.6338 15.1815 22.6688C15.1197 22.6896 15.0579 22.711 14.9966 22.7338C13.7705 23.1881 12.7042 24.0282 11.9131 25.1624L11.7253 25.4313C11.6449 25.5463 11.4815 25.4464 11.5262 25.3095L12.6944 21.733C12.7817 21.4661 12.6714 21.1705 12.4409 21.0477C11.0691 20.3173 9.9793 19.5019 9.20096 18.6244C8.58103 17.925 8.1563 17.1825 7.93854 16.4176C7.71343 15.627 7.74285 14.9397 7.83261 14.4427C7.88214 14.169 8.15532 13.9948 8.43046 14.0515L18.9423 16.2234C19.0104 16.2375 19.0806 16.2375 19.1482 16.2234L29.6596 14.0515C29.9347 13.9948 30.2079 14.169 30.2574 14.4427C30.3462 14.9344 30.3761 15.6124 30.1588 16.3923Z" fill="#FE5F55"/>
<path d="M37.3179 18.9438L36.491 18.1274C36.3017 17.9406 36.5008 17.629 36.7529 17.7188C36.9795 17.7994 37.2331 17.7222 37.3743 17.5285C37.5156 17.3354 37.5102 17.0728 37.3616 16.885L32.3963 10.6275V3.98755C32.3963 3.80167 32.2992 3.62937 32.1393 3.53182C31.9794 3.43475 31.7803 3.42601 31.6125 3.50998L24.3127 7.15634L19.4823 0.220344C19.3807 0.0820224 19.2179 0 19.0453 0C18.8726 0 18.7098 0.0820222 18.6083 0.219859L13.7778 7.15634L6.47799 3.50998C6.31026 3.4265 6.11114 3.43475 5.95125 3.53182C5.79136 3.62937 5.69425 3.80167 5.69425 3.98755V10.6275L0.729436 16.8855C0.58083 17.0733 0.575435 17.3354 0.716684 17.529C0.857934 17.7222 1.1115 17.7998 1.33808 17.7193C1.58968 17.6295 1.7893 17.9406 1.59998 18.1279L0.773086 18.9443C0.632327 19.0831 0.580339 19.2869 0.636741 19.4752L3.97621 30.574C4.04193 30.7924 4.24007 30.9458 4.47058 30.9555C4.70109 30.9647 4.91199 30.8302 4.99684 30.6182L5.62265 29.0568C5.72466 28.803 6.10574 28.8748 6.10574 29.1481V33.5016C6.10574 33.6583 6.17538 33.8073 6.29603 33.9092L10.7483 37.6541C10.9323 37.809 11.201 37.8264 11.4065 37.6862C11.5561 37.5842 11.639 37.411 11.639 37.2314V35.6366C11.639 35.4031 11.9352 35.2993 12.0838 35.4808L18.6259 43.468C18.7279 43.5932 18.8824 43.666 19.0453 43.666C19.2081 43.666 19.3626 43.5932 19.4651 43.468L26.0072 35.4808C26.1558 35.2993 26.452 35.4036 26.452 35.6366V37.2469C26.452 37.4556 26.5746 37.6449 26.7659 37.7323C26.9572 37.8196 27.1823 37.7895 27.3427 37.6541L31.795 33.9092C31.9156 33.8078 31.9853 33.6588 31.9853 33.5016V29.1481C31.9853 28.8748 32.3664 28.803 32.4684 29.0568L33.0942 30.6182C33.179 30.8298 33.3899 30.9647 33.6204 30.9555C33.8505 30.9453 34.0486 30.7924 34.1148 30.574L37.4543 19.4752C37.5107 19.2869 37.4587 19.0826 37.3179 18.9438ZM6.7752 4.8568L13.7008 8.3163C13.9372 8.43424 14.2256 8.36532 14.3816 8.15371L19.0453 1.44389L23.7089 8.15371C23.8649 8.3658 24.1528 8.43472 24.3897 8.3163L31.3153 4.8568V10.4751L19.0453 12.761L6.7752 10.4751V4.8568ZM36.2836 19.6174L33.7303 28.1041C33.6626 28.3293 33.3453 28.3434 33.2575 28.125L31.947 24.8572C31.8514 24.6184 31.5978 24.481 31.3433 24.5291C31.0887 24.5771 30.9043 24.798 30.9043 25.0542V33.14C30.9043 33.2128 30.872 33.2817 30.816 33.3288L27.9454 35.7433C27.7826 35.8802 27.533 35.7657 27.533 35.5545V33.4438C27.533 33.2361 27.4197 33.04 27.2314 32.9488C27.0018 32.8376 26.7296 32.8997 26.5722 33.0919L19.24 42.0445C19.1399 42.1668 18.9511 42.1668 18.851 42.0445L11.5178 33.0919C11.4134 32.9643 11.2579 32.8939 11.098 32.8939C11.0048 32.8939 10.9102 32.9177 10.8234 32.9682C10.6556 33.0652 10.5575 33.2487 10.5575 33.4414V35.555C10.5575 35.7662 10.3074 35.8807 10.1451 35.7438L7.27448 33.3288C7.21857 33.2817 7.1862 33.2128 7.1862 33.14V25.0678C7.1862 24.8324 7.03808 24.616 6.81101 24.5446C6.53586 24.4582 6.24699 24.598 6.14302 24.8567L4.83302 28.1245C4.74523 28.3429 4.4284 28.3293 4.36023 28.1036L1.80695 19.6174C1.78047 19.5301 1.80499 19.4354 1.87022 19.3714L4.87569 16.4035C5.05471 16.2264 5.0861 15.9502 4.95024 15.7386C4.81488 15.527 4.54906 15.4372 4.3107 15.5217L3.56227 15.7886C3.32587 15.873 3.12528 15.5983 3.28026 15.4027L6.27936 11.6224C6.33674 11.5496 6.43042 11.5152 6.52213 11.5317L18.9457 13.8312H18.9462C18.9791 13.837 19.0119 13.8404 19.0448 13.8404C19.0776 13.8404 19.111 13.8375 19.1434 13.8312H19.1438L31.5674 11.5317C31.6591 11.5147 31.7528 11.5496 31.8102 11.6224L34.8093 15.4027C34.9648 15.5983 34.7642 15.873 34.5273 15.7886L33.7788 15.5217C33.5405 15.4367 33.2747 15.527 33.1393 15.7386C33.0039 15.9502 33.0348 16.2269 33.2138 16.4035L36.2193 19.3714C36.2855 19.4354 36.3096 19.5301 36.2836 19.6174Z" fill="#FE5F55"/>
</svg>
