<svg width="220" height="116" viewBox="0 0 220 116" fill="none" xmlns="http://www.w3.org/2000/svg">
<path d="M101.914 48.7969L59.0326 41.1809C58.4735 41.0816 57.891 41.2995 57.935 41.5935L58.9506 48.276C58.9799 48.4694 59.2843 48.6267 59.6736 48.6486L88.8652 50.3312C89.4301 50.3634 89.7609 50.6638 89.5063 50.9165L86.6963 53.6873C86.3187 54.0599 87.1851 54.4377 87.8876 54.2069L102.096 49.5176C102.655 49.3307 102.549 48.9091 101.914 48.7969Z" fill="#FE5F55"/>
<path d="M160.964 41.1809L118.079 48.7969C117.444 48.9091 117.339 49.3307 117.901 49.5163L132.109 54.2056C132.811 54.4377 133.678 54.0586 133.3 53.686L130.49 50.9152C130.235 50.6638 130.563 50.3634 131.131 50.3299L160.323 48.6473C160.715 48.6254 161.016 48.4681 161.046 48.2747L162.061 41.5922C162.108 41.2995 161.526 41.0816 160.964 41.1809Z" fill="#FE5F55"/>
<path d="M177.24 33.9915L110.614 40.1184C110.207 40.1558 109.788 40.1558 109.384 40.1184L42.7615 33.9915C41.4385 33.8703 40.092 34.1514 39.4715 34.6813C39.2695 34.8528 34.5891 38.9464 38.0079 44.4105C41.096 49.3486 49.605 53.7014 63.327 57.3733C64.6325 57.7227 65.215 58.495 64.6881 59.181L51.7505 75.9795C50.9485 77.0226 51.4812 78.2023 53.1116 78.9772L63.1221 83.736C66.5146 85.349 70.9374 86.1896 75.4187 86.1896C77.4647 86.1896 79.5225 86.0143 81.4982 85.6571C82.0251 85.5617 82.6047 85.5772 83.1023 85.7035L107.666 91.9168C109.112 92.2829 110.889 92.2829 112.332 91.9168L136.896 85.7022C137.393 85.5759 137.973 85.5617 138.497 85.6558C144.802 86.7943 151.929 86.0865 156.873 83.736L166.884 78.9772C168.511 78.2023 169.047 77.0238 168.245 75.9795L155.31 59.1823C154.783 58.4963 155.366 57.724 156.671 57.3746C170.393 53.7026 178.902 49.3486 181.99 44.4118C185.406 38.9477 180.726 34.8541 180.527 34.6826C179.909 34.1527 178.563 33.8703 177.24 33.9915ZM80.9655 82.5756C76.4432 83.7618 70.9257 83.3802 67.2347 81.6267L62.0216 79.1474C59.9463 78.161 59.7092 76.561 61.4713 75.4354L72.1229 68.6381C76.1241 66.0853 81.5158 64.1951 87.7153 63.1727C88.1836 63.0953 88.6549 63.0244 89.1262 62.9574C89.7935 62.8633 90.5077 62.8916 91.14 63.0334C93.868 63.6407 101.739 65.3697 105.275 66.1459C106.346 66.3805 107.034 66.904 107.034 67.4829V75.0847C107.034 75.7332 106.168 76.3018 104.909 76.4875C103.802 76.6512 102.719 76.8691 101.677 77.1425L80.9655 82.5756ZM127.828 84.7056L112.332 88.6251C110.865 88.9952 109.13 88.9952 107.666 88.6251L92.1703 84.7056C90.736 84.342 90.7185 83.3325 92.144 82.9586L104.458 79.7288C107.927 78.8186 112.068 78.8186 115.537 79.7288L127.851 82.9586C129.277 83.3325 129.262 84.3433 127.828 84.7056ZM158.527 75.4354C160.289 76.561 160.052 78.161 157.977 79.1474L152.763 81.6267C149.072 83.3802 143.555 83.7618 139.033 82.5756L118.321 77.1425C117.279 76.8691 116.196 76.6512 115.089 76.4875C113.831 76.3018 112.964 75.7332 112.964 75.0847V67.4829C112.964 66.9053 113.652 66.3805 114.723 66.1459C118.259 65.3697 126.133 63.6407 128.858 63.0334C129.49 62.8929 130.205 62.8645 130.872 62.9574C131.343 63.0231 131.814 63.0953 132.283 63.1727C138.482 64.1951 143.874 66.0853 147.875 68.6381L158.527 75.4354ZM176.326 43.5467C175.05 45.5877 172.527 47.5694 168.83 49.4363C164.182 51.7829 157.649 53.9631 149.415 55.9138C148.039 56.24 147.381 57.0265 147.902 57.7343L154.874 67.2353C155.14 67.5989 154.165 67.8645 153.685 67.559L152.564 66.8447C147.843 63.8315 141.48 61.601 134.162 60.3929C133.796 60.3323 133.427 60.2743 133.058 60.2202C132.435 60.1273 132.078 59.8063 132.256 59.4981C132.792 58.5711 131.794 57.568 130.313 57.5461L111.067 57.2534C110.356 57.2431 109.642 57.2431 108.931 57.2534L89.6852 57.5461C88.2041 57.5693 87.206 58.5711 87.7417 59.4981C87.9202 59.8063 87.5631 60.1273 86.9396 60.2202C86.5708 60.2756 86.202 60.3323 85.8361 60.3929C78.5185 61.5997 72.155 63.8315 67.4337 66.8447L66.3126 67.559C65.8326 67.8645 64.8579 67.5989 65.1242 67.2353L72.0965 57.7343C72.6175 57.0252 71.9589 56.24 70.5832 55.9138C62.3962 53.9734 55.8923 51.8073 51.247 49.4763C47.5472 47.6184 45.0124 45.6457 43.7128 43.6137C42.3693 41.5134 42.5449 39.6878 43.0805 38.3675C43.3762 37.6403 45.0065 37.1774 46.6486 37.3283L109.384 43.098C109.791 43.1354 110.21 43.1354 110.614 43.098L173.347 37.3283C174.989 37.1774 176.619 37.6403 176.915 38.3675C177.444 39.6736 177.623 41.4747 176.326 43.5467Z" fill="#FE5F55"/>
<path d="M219.052 50.3247L214.117 48.1561C212.987 47.6597 214.176 46.8319 215.68 47.0704C217.032 47.2845 218.546 47.0795 219.389 46.565C220.232 46.0519 220.2 45.3544 219.313 44.8554L189.679 28.2322V10.593C189.679 10.0992 189.099 9.64153 188.145 9.38237C187.191 9.12451 186.003 9.1013 185.002 9.32435L141.435 19.011L112.607 0.585351C112.001 0.217895 111.029 0 109.999 0C108.968 0 107.996 0.217894 107.391 0.584061L78.5619 19.011L34.9955 9.32435C33.9944 9.10259 32.8061 9.12451 31.8518 9.38237C30.8976 9.64153 30.318 10.0992 30.318 10.593V28.2322L0.687398 44.8567C-0.199502 45.3557 -0.2317 46.0519 0.611294 46.5663C1.45429 47.0795 2.96758 47.2858 4.31988 47.0717C5.82147 46.8332 7.01278 47.6597 5.88293 48.1573L0.947908 50.326C0.107841 50.6947 -0.20243 51.2362 0.134182 51.7365L20.0645 81.2206C20.4568 81.8008 21.6393 82.2082 23.015 82.234C24.3908 82.2585 25.6494 81.9014 26.1558 81.338L29.8907 77.1902C30.4995 76.5159 32.7739 76.7067 32.7739 77.4326V88.9978C32.7739 89.4143 33.1895 89.8101 33.9096 90.0808L60.4814 100.029C61.5791 100.441 63.1831 100.487 64.4095 100.114C65.3023 99.8436 65.797 99.3833 65.797 98.9062V94.6695C65.797 94.0494 67.5649 93.7734 68.4518 94.2556L107.496 115.474C108.105 115.807 109.027 116 109.999 116C110.97 116 111.892 115.807 112.504 115.474L151.548 94.2556C152.435 93.7734 154.203 94.0506 154.203 94.6695V98.9475C154.203 99.5019 154.935 100.005 156.076 100.237C157.218 100.469 158.561 100.389 159.519 100.029L186.09 90.0808C186.811 89.8114 187.226 89.4155 187.226 88.9978V77.4326C187.226 76.7067 189.5 76.5159 190.109 77.1902L193.844 81.338C194.351 81.9001 195.609 82.2585 196.985 82.234C198.358 82.207 199.54 81.8008 199.935 81.2206L219.866 51.7365C220.202 51.2362 219.892 50.6934 219.052 50.3247ZM36.7693 12.9022L78.1023 22.0925C79.5132 22.4058 81.2343 22.2227 82.1651 21.6606L109.999 3.83572L137.832 21.6606C138.763 22.224 140.481 22.4071 141.895 22.0925L183.228 12.9022V27.8274L109.999 33.9001L36.7693 27.8274V12.9022ZM212.879 52.1143L197.641 74.6593C197.237 75.2575 195.343 75.2949 194.819 74.7147L186.998 66.0337C186.427 65.3994 184.914 65.0345 183.395 65.1622C181.875 65.2898 180.775 65.8765 180.775 66.5572V88.0373C180.775 88.2307 180.582 88.4137 180.248 88.5388L163.116 94.9532C162.144 95.3168 160.654 95.0125 160.654 94.4516V88.8444C160.654 88.2925 159.978 87.7717 158.854 87.5293C157.484 87.234 155.86 87.399 154.92 87.9096L111.161 111.692C110.563 112.017 109.437 112.017 108.839 111.692L65.074 87.9096C64.4505 87.5705 63.5226 87.3836 62.5684 87.3836C62.0123 87.3836 61.4474 87.4468 60.9293 87.5808C59.9282 87.8387 59.3428 88.3261 59.3428 88.8379V94.4529C59.3428 95.0138 57.85 95.318 56.8811 94.9545L39.749 88.5388C39.4154 88.4137 39.2222 88.2307 39.2222 88.0373V66.5933C39.2222 65.968 38.3382 65.393 36.983 65.2034C35.3409 64.9739 33.6169 65.3452 32.9963 66.0325L25.1781 74.7134C24.6542 75.2936 22.7633 75.2575 22.3564 74.658L7.11815 52.1143C6.96009 51.8822 7.10645 51.6308 7.49574 51.4606L25.4328 43.5764C26.5012 43.1058 26.6885 42.3722 25.8777 41.81C25.0698 41.2479 23.4834 41.0094 22.0608 41.2337L17.5941 41.9428C16.1833 42.1672 14.9861 41.4374 15.9111 40.9178L33.81 30.8753C34.1525 30.6819 34.7116 30.5904 35.2589 30.6342L109.404 36.743H109.407C109.603 36.7585 109.799 36.7675 109.996 36.7675C110.192 36.7675 110.391 36.7598 110.584 36.743H110.587L184.732 30.6342C185.28 30.5891 185.839 30.6819 186.181 30.8753L204.08 40.9178C205.008 41.4374 203.811 42.1672 202.397 41.9428L197.93 41.2337C196.508 41.0081 194.921 41.2479 194.114 41.81C193.306 42.3722 193.49 43.1071 194.558 43.5764L212.495 51.4606C212.891 51.6308 213.034 51.8822 212.879 52.1143Z" fill="#FE5F55"/>
</svg>
