<svg width="132" height="100" viewBox="0 0 132 100" fill="none" xmlns="http://www.w3.org/2000/svg">
<path d="M64.6907 18.3687L57.5056 15.5018C57.4119 15.4644 57.3143 15.5464 57.3217 15.6571L57.4919 18.1726C57.4968 18.2454 57.5478 18.3046 57.613 18.3129L62.5043 18.9462C62.5989 18.9584 62.6543 19.0714 62.6117 19.1666L62.1408 20.2096C62.0776 20.3498 62.2227 20.492 62.3404 20.4052L64.7211 18.64C64.8148 18.5696 64.7971 18.4109 64.6907 18.3687Z" fill="#FE5F55"/>
<path d="M74.5849 15.5018L67.3993 18.3687C67.2929 18.4109 67.2753 18.5696 67.3694 18.6395L69.7501 20.4047C69.8678 20.492 70.0129 20.3493 69.9497 20.2091L69.4788 19.1661C69.4362 19.0714 69.4911 18.9584 69.5863 18.9457L74.4775 18.3124C74.5432 18.3041 74.5937 18.2449 74.5986 18.1721L74.7688 15.6566C74.7767 15.5464 74.6791 15.4644 74.5849 15.5018Z" fill="#FE5F55"/>
<path d="M77.3119 12.7955L66.1482 15.1018C66.0801 15.1159 66.0099 15.1159 65.9423 15.1018L54.7791 12.7955C54.5575 12.7499 54.3319 12.8557 54.2279 13.0551C54.194 13.1197 53.4098 14.6606 53.9827 16.7175C54.5001 18.5764 55.9258 20.2149 58.225 21.5971C58.4438 21.7287 58.5414 22.0194 58.4531 22.2776L56.2853 28.6011C56.1509 28.9937 56.2402 29.4378 56.5134 29.7295L58.1907 31.5209C58.7591 32.128 59.5002 32.4445 60.2511 32.4445C60.5939 32.4445 60.9387 32.3785 61.2698 32.244C61.358 32.2081 61.4551 32.2139 61.5385 32.2615L65.6544 34.6004C65.8966 34.7382 66.1944 34.7382 66.4361 34.6004L70.552 32.261C70.6354 32.2135 70.7325 32.2081 70.8203 32.2435C71.8767 32.6721 73.0709 32.4056 73.8993 31.5209L75.5766 29.7295C75.8493 29.4378 75.9391 28.9942 75.8047 28.6011L73.6374 22.2781C73.5491 22.0199 73.6467 21.7291 73.8655 21.5976C76.1647 20.2154 77.5904 18.5764 78.1079 16.718C78.6802 14.6611 77.896 13.1202 77.8626 13.0556C77.7591 12.8562 77.5335 12.7499 77.3119 12.7955ZM61.1805 31.0841C60.4227 31.5306 59.4982 31.3869 58.8798 30.7269L58.0063 29.7936C57.6586 29.4223 57.6188 28.82 57.9141 28.3963L59.6988 25.8375C60.3693 24.8766 61.2727 24.1651 62.3115 23.7802C62.3899 23.7511 62.4689 23.7244 62.5479 23.6991C62.6597 23.6637 62.7794 23.6744 62.8853 23.7278C63.3424 23.9564 64.6612 24.6072 65.2537 24.8994C65.4332 24.9877 65.5484 25.1848 65.5484 25.4027V28.2642C65.5484 28.5084 65.4033 28.7224 65.1924 28.7923C65.007 28.8539 64.8255 28.936 64.6509 29.0388L61.1805 31.0841ZM69.0326 31.8858L66.4361 33.3613C66.1904 33.5006 65.8996 33.5006 65.6544 33.3613L63.0579 31.8858C62.8176 31.749 62.8147 31.369 63.0535 31.2282L65.1168 30.0124C65.698 29.6698 66.392 29.6698 66.9732 30.0124L69.0365 31.2282C69.2754 31.369 69.2729 31.7495 69.0326 31.8858ZM74.1764 28.3963C74.4717 28.82 74.4319 29.4223 74.0842 29.7936L73.2107 30.7269C72.5923 31.3869 71.6678 31.5306 70.91 31.0841L67.4396 29.0388C67.265 28.936 67.0835 28.8539 66.8981 28.7923C66.6873 28.7224 66.5421 28.5084 66.5421 28.2642V25.4027C66.5421 25.1852 66.6573 24.9877 66.8368 24.8994C67.4293 24.6072 68.7486 23.9564 69.2052 23.7278C69.3112 23.6749 69.4308 23.6642 69.5426 23.6991C69.6216 23.7239 69.7006 23.7511 69.779 23.7802C70.8178 24.1651 71.7212 24.8766 72.3917 25.8375L74.1764 28.3963ZM77.1588 16.3923C76.945 17.1606 76.5222 17.9066 75.9028 18.6094C75.124 19.4927 74.0293 20.3134 72.6496 21.0477C72.4191 21.1705 72.3088 21.4666 72.3961 21.733L73.5643 25.3095C73.609 25.4464 73.4456 25.5463 73.3652 25.4313L73.1774 25.1624C72.3863 24.0282 71.32 23.1886 70.0939 22.7338C70.0326 22.711 69.9708 22.6891 69.909 22.6688C69.8045 22.6338 69.7447 22.513 69.7746 22.397C69.8644 22.048 69.6971 21.6704 69.449 21.6622L66.2243 21.552C66.1051 21.5481 65.9854 21.5481 65.8662 21.552L62.6415 21.6622C62.3934 21.6709 62.2261 22.048 62.3159 22.397C62.3458 22.513 62.286 22.6338 62.1815 22.6688C62.1197 22.6896 62.0579 22.711 61.9966 22.7338C60.7705 23.1881 59.7042 24.0282 58.9131 25.1624L58.7253 25.4313C58.6449 25.5463 58.4815 25.4464 58.5262 25.3095L59.6944 21.733C59.7817 21.4661 59.6714 21.1705 59.4409 21.0477C58.0691 20.3173 56.9793 19.5019 56.201 18.6244C55.581 17.925 55.1563 17.1825 54.9385 16.4176C54.7134 15.627 54.7429 14.9397 54.8326 14.4427C54.8821 14.169 55.1553 13.9948 55.4305 14.0515L65.9423 16.2234C66.0104 16.2375 66.0806 16.2375 66.1482 16.2234L76.6596 14.0515C76.9347 13.9948 77.2079 14.169 77.2574 14.4427C77.3462 14.9344 77.3761 15.6124 77.1588 16.3923Z" fill="#FE5F55"/>
<path d="M84.3179 18.9438L83.491 18.1274C83.3017 17.9406 83.5008 17.629 83.7529 17.7188C83.9795 17.7994 84.2331 17.7222 84.3743 17.5285C84.5156 17.3354 84.5102 17.0728 84.3616 16.885L79.3963 10.6275V3.98755C79.3963 3.80167 79.2992 3.62937 79.1393 3.53182C78.9794 3.43475 78.7803 3.42601 78.6125 3.50998L71.3127 7.15634L66.4823 0.220344C66.3807 0.0820224 66.2179 0 66.0453 0C65.8726 0 65.7098 0.0820222 65.6083 0.219859L60.7778 7.15634L53.478 3.50998C53.3103 3.4265 53.1111 3.43475 52.9512 3.53182C52.7914 3.62937 52.6943 3.80167 52.6943 3.98755V10.6275L47.7294 16.8855C47.5808 17.0733 47.5754 17.3354 47.7167 17.529C47.8579 17.7222 48.1115 17.7998 48.3381 17.7193C48.5897 17.6295 48.7893 17.9406 48.6 18.1279L47.7731 18.9443C47.6323 19.0831 47.5803 19.2869 47.6367 19.4752L50.9762 30.574C51.0419 30.7924 51.2401 30.9458 51.4706 30.9555C51.7011 30.9647 51.912 30.8302 51.9968 30.6182L52.6226 29.0568C52.7247 28.803 53.1057 28.8748 53.1057 29.1481V33.5016C53.1057 33.6583 53.1754 33.8073 53.296 33.9092L57.7483 37.6541C57.9323 37.809 58.201 37.8264 58.4065 37.6862C58.5561 37.5842 58.639 37.411 58.639 37.2314V35.6366C58.639 35.4031 58.9352 35.2993 59.0838 35.4808L65.6259 43.468C65.7279 43.5932 65.8824 43.666 66.0453 43.666C66.2081 43.666 66.3626 43.5932 66.4651 43.468L73.0072 35.4808C73.1558 35.2993 73.452 35.4036 73.452 35.6366V37.2469C73.452 37.4556 73.5746 37.6449 73.7659 37.7323C73.9572 37.8196 74.1823 37.7895 74.3427 37.6541L78.795 33.9092C78.9156 33.8078 78.9853 33.6588 78.9853 33.5016V29.1481C78.9853 28.8748 79.3664 28.803 79.4684 29.0568L80.0942 30.6182C80.179 30.8298 80.3899 30.9647 80.6204 30.9555C80.8505 30.9453 81.0486 30.7924 81.1148 30.574L84.4543 19.4752C84.5107 19.2869 84.4587 19.0826 84.3179 18.9438ZM53.7752 4.8568L60.7008 8.3163C60.9372 8.43424 61.2256 8.36532 61.3816 8.15371L66.0453 1.44389L70.7089 8.15371C70.8649 8.3658 71.1528 8.43472 71.3897 8.3163L78.3153 4.8568V10.4751L66.0453 12.761L53.7752 10.4751V4.8568ZM83.2836 19.6174L80.7303 28.1041C80.6626 28.3293 80.3453 28.3434 80.2575 28.125L78.947 24.8572C78.8514 24.6184 78.5978 24.481 78.3433 24.5291C78.0887 24.5771 77.9043 24.798 77.9043 25.0542V33.14C77.9043 33.2128 77.872 33.2817 77.816 33.3288L74.9454 35.7433C74.7826 35.8802 74.533 35.7657 74.533 35.5545V33.4438C74.533 33.2361 74.4197 33.04 74.2314 32.9488C74.0018 32.8376 73.7296 32.8997 73.5722 33.0919L66.24 42.0445C66.1399 42.1668 65.9511 42.1668 65.851 42.0445L58.5178 33.0919C58.4134 32.9643 58.2579 32.8939 58.098 32.8939C58.0048 32.8939 57.9102 32.9177 57.8234 32.9682C57.6556 33.0652 57.5575 33.2487 57.5575 33.4414V35.555C57.5575 35.7662 57.3074 35.8807 57.1451 35.7438L54.2745 33.3288C54.2186 33.2817 54.1862 33.2128 54.1862 33.14V25.0678C54.1862 24.8324 54.0381 24.616 53.811 24.5446C53.5359 24.4582 53.247 24.598 53.143 24.8567L51.833 28.1245C51.7452 28.3429 51.4284 28.3293 51.3602 28.1036L48.807 19.6174C48.7805 19.5301 48.805 19.4354 48.8702 19.3714L51.8757 16.4035C52.0547 16.2264 52.0861 15.9502 51.9502 15.7386C51.8149 15.527 51.5491 15.4372 51.3107 15.5217L50.5623 15.7886C50.3259 15.873 50.1253 15.5983 50.2803 15.4027L53.2794 11.6224C53.3367 11.5496 53.4304 11.5152 53.5221 11.5317L65.9457 13.8312H65.9462C65.9791 13.837 66.0119 13.8404 66.0448 13.8404C66.0776 13.8404 66.111 13.8375 66.1434 13.8312H66.1438L78.5674 11.5317C78.6591 11.5147 78.7528 11.5496 78.8102 11.6224L81.8093 15.4027C81.9648 15.5983 81.7642 15.873 81.5273 15.7886L80.7788 15.5217C80.5405 15.4367 80.2747 15.527 80.1393 15.7386C80.0039 15.9502 80.0348 16.2269 80.2138 16.4035L83.2193 19.3714C83.2855 19.4354 83.3096 19.5301 83.2836 19.6174Z" fill="#FE5F55"/>
<path d="M20.6044 74.9177L23.8166 79.1863C25.7899 81.5931 28.8186 81.5023 29.4152 81.5023V82.0472H24.918C20.4208 82.0472 19.3195 80.8666 14.96 74.4635C13.308 72.1476 11.7477 70.0132 10.8758 68.8779L8.03066 72.2384V77.6423C8.03066 80.5487 9.04023 81.5023 10.8758 81.5023V82.0472H1.00957V81.5023C2.79926 81.5023 3.76294 80.5487 3.76294 77.6423V56.4806C3.76294 54.3463 3.16638 53.5289 1.92736 53.211C1.97325 53.3926 2.01914 53.5289 2.01914 53.6651C2.01914 54.1646 1.56024 54.5733 1.00957 54.5733C0.458895 54.5733 0 54.1646 0 53.6651C0 53.0747 0.458895 52.666 1.00957 52.666H10.6923C11.2429 52.666 11.6559 53.1202 11.6559 53.6651C11.6559 54.1646 11.1511 54.5733 10.6464 54.5733C10.0498 54.5733 9.5909 54.1646 9.5909 53.6651C9.5909 53.5289 9.63679 53.3926 9.63679 53.3472C8.67312 53.6651 8.03066 54.3463 8.03066 56.4806V70.6036C8.62723 69.877 9.40735 69.105 9.95802 68.4238L10.9217 67.2885L15.6024 61.7029C18.0346 58.9328 22.853 53.1656 16.5661 53.1656V52.666H28.222C28.7727 52.666 29.1857 53.0747 29.1857 53.6651C29.1857 54.1646 28.7727 54.5733 28.222 54.5733C27.6714 54.5733 27.1666 54.1646 27.1666 53.6651C27.1666 53.5289 27.2125 53.3472 27.3042 53.211C24.5968 53.438 21.8893 55.4361 13.6751 65.7445C16.1072 69.0142 18.6311 72.3746 20.6044 74.9177V74.9177ZM57.6751 52.7115H68.505V53.2564C66.6235 53.2564 64.5585 53.2564 59.786 62.4295L56.6196 68.9688V77.4153C56.6196 80.6849 57.9963 81.5023 59.786 81.5023V82.0472H49.5067V81.5023C51.2046 81.5023 52.6272 80.6849 52.6272 77.4153V70.0132C49.5067 64.5638 47.6253 61.2034 46.3863 59.1599C45.6979 57.9338 45.1472 57.0255 44.7801 56.4352C43.174 54.0284 42.2562 53.438 41.2007 53.3018C41.2466 53.438 41.2925 53.5289 41.2925 53.7105C41.2925 54.2554 40.8336 54.6641 40.283 54.6641C39.7323 54.6641 39.2734 54.2554 39.2734 53.7105C39.2734 53.1202 39.7323 52.7115 40.283 52.7115H51.1129H51.1588C51.7094 52.7115 52.1224 53.1202 52.1224 53.7105C52.1224 54.2554 51.7094 54.6641 51.1588 54.6641C50.5622 54.6641 50.1492 54.2554 50.1492 53.7105C50.1492 53.4835 50.1951 53.3472 50.2869 53.2564C49.0937 53.3926 47.9465 54.1192 50.1492 57.8884L56.3443 68.333L59.5565 61.7937C60.9791 58.9328 63.2736 53.2564 57.6751 53.2564V52.7115V52.7115ZM99.1511 73.3737H99.7018V82.0472H78.5468V81.5023C80.3364 81.5023 80.8412 80.0946 80.8412 77.1882V57.2072C80.8412 55.0729 80.5659 53.8467 79.5104 53.438C79.5104 53.4835 79.5563 53.5743 79.5563 53.7105C79.5563 54.2554 79.0974 54.6641 78.5468 54.6641C77.9961 54.6641 77.5372 54.2554 77.5372 53.7105C77.5372 53.1656 77.9961 52.7115 78.5468 52.7115H99.1511V60.2498C99.1511 60.9309 98.8299 61.2488 98.1416 61.2488C97.5909 61.2488 97.1779 60.8401 97.1779 60.2498C97.1779 59.6594 97.5909 59.2507 98.1416 59.2507C98.2792 59.2507 98.4169 59.2507 98.5087 59.2961C97.4073 53.3018 90.7075 53.2564 87.4493 53.2564H85.2007V66.2895H87.8623C89.0096 66.2895 93.4608 66.4257 93.6903 62.9744H94.241V66.8798H85.0631V67.6064H94.241V71.5118H93.6903C93.4608 68.0151 88.9637 68.1968 87.8623 68.1968H85.2007V81.5023H87.0822C90.891 81.5023 98.2333 81.7294 99.1511 73.3737V73.3737ZM130.853 71.2847C131.403 71.2847 131.816 71.7388 131.816 72.2838V72.5108L130.807 82.0472H111.304L127.319 53.211H125.254C117.912 53.211 114.378 54.8912 113.002 60.1589C113.552 60.1589 114.011 60.5676 114.011 61.1126C114.011 61.7029 113.552 62.1116 113.002 62.1116C112.451 62.1116 111.946 61.7029 111.946 61.1126C111.946 61.0218 111.992 60.9763 112.038 60.9763L112.726 52.7115H132L117.04 81.5023H118.004C126.356 81.5023 129.706 78.5506 130.899 73.2828H130.853C130.256 73.2828 129.843 72.8287 129.843 72.2838C129.843 71.7388 130.256 71.2847 130.853 71.2847V71.2847Z" fill="#EEEEEE"/>
<path d="M34.1153 96.6692H34.2638V99.0086H28.5579V98.8616C29.0406 98.8616 29.1768 98.4819 29.1768 97.698V92.3088C29.1768 91.7331 29.1025 91.4024 28.8179 91.2922C28.8179 91.3045 28.8302 91.3289 28.8302 91.3657C28.8302 91.5127 28.7065 91.6229 28.5579 91.6229C28.4094 91.6229 28.2856 91.5127 28.2856 91.3657C28.2856 91.2187 28.4094 91.0962 28.5579 91.0962H34.1153V93.1294C34.1153 93.3132 34.0286 93.3989 33.843 93.3989C33.6944 93.3989 33.5831 93.2887 33.5831 93.1294C33.5831 92.9702 33.6944 92.86 33.843 92.86C33.8801 92.86 33.9172 92.86 33.942 92.8722C33.6449 91.2555 31.8379 91.2432 30.9591 91.2432H30.3526V94.7584H31.0705C31.3799 94.7584 32.5805 94.7952 32.6424 93.8643H32.7909V94.9177H30.3155V95.1136H32.7909V96.167H32.6424C32.5805 95.2239 31.3675 95.2729 31.0705 95.2729H30.3526V98.8616H30.8601C31.8874 98.8616 33.8677 98.9228 34.1153 96.6692ZM41.7238 93.8521L43.6051 95.0769C45.1151 96.0445 45.3751 97.3183 44.781 98.2369C44.6696 98.4084 44.521 98.5554 44.323 98.6901C43.9764 98.9228 43.4318 99.1433 42.5407 99.1433C41.6 99.1433 40.944 98.9963 40.4985 98.8371C40.2385 98.7513 40.0158 98.6411 39.8425 98.5186V96.363H39.8549L39.8425 96.3507C39.8425 96.2037 39.9662 96.0935 40.1148 96.0935C40.2509 96.0935 40.3871 96.2037 40.3871 96.3507C40.3871 96.5099 40.2509 96.6202 40.1148 96.6202C40.0653 96.6202 40.0281 96.6079 40.0034 96.5957C40.1643 97.8695 40.7213 98.9963 42.5407 98.9963C44.2735 98.9963 44.4715 97.1101 43.1595 96.167L41.2782 94.9667C40.2138 94.2685 39.1865 93.2642 40.0405 91.9291C40.1519 91.7699 40.3128 91.6229 40.5108 91.4882C40.845 91.2555 41.3896 91.0472 42.1818 91.0472C43.011 91.0472 43.6423 91.182 44.0878 91.3167C44.3478 91.4024 44.5829 91.4882 44.7686 91.5862V93.4479V93.4724C44.7686 93.6071 44.6572 93.7418 44.5087 93.7418C44.3478 93.7418 44.2364 93.6071 44.2364 93.4724C44.2364 93.3254 44.3478 93.1907 44.5087 93.1907C44.521 93.1907 44.5458 93.2152 44.5829 93.2152C44.422 92.1986 43.9269 91.1942 42.1818 91.1942C40.9564 91.1942 40.0281 92.762 41.7238 93.8521V93.8521ZM52.5628 95.6158H52.3523V97.4653C52.3523 98.8003 52.7484 98.8616 53.4787 98.8616V99.0086H50.471V98.8616C51.0156 98.8616 51.2384 98.5799 51.2384 97.4898V92.2966C51.2384 91.6107 51.127 91.3412 50.7433 91.2555C50.7557 91.2677 50.7557 91.3045 50.7557 91.3534C50.7557 91.5004 50.6443 91.6107 50.4958 91.6107C50.3349 91.6107 50.2235 91.5004 50.2235 91.3534C50.2235 91.1697 50.3101 91.084 50.4958 91.084H52.5628C54.803 91.084 56.3254 91.3534 56.3254 93.3499C56.3254 95.3464 54.803 95.6158 52.5628 95.6158ZM52.3523 91.231V95.4688H52.5628C53.949 95.4688 55.0753 95.4443 55.0753 93.3499C55.0753 91.2187 53.8995 91.231 52.5628 91.231H52.3523V91.231ZM65.3078 91.133C67.7708 91.133 68.9467 92.9947 68.9467 95.1994C68.9467 97.404 67.7708 99.1433 65.3078 99.1433C62.8571 99.1433 61.6689 97.404 61.6689 95.1994C61.6689 92.9947 62.8571 91.133 65.3078 91.133V91.133ZM65.3078 91.28C63.9834 91.28 62.9685 92.1618 62.9685 95.1626H67.6471C67.6471 92.1618 66.6321 91.28 65.3078 91.28ZM67.6471 95.2974H62.9685V95.4688H67.6471V95.2974ZM65.3078 98.9963C66.5826 98.9963 67.5481 98.3227 67.6471 95.6158H62.9685C63.0675 98.3227 64.0206 98.9963 65.3078 98.9963ZM80.0084 97.8695C80.2065 98.7024 80.9367 98.8493 81.2214 98.8493V99.0086H80.3674C78.9316 99.0086 79.0678 98.9963 78.4489 96.5589C78.1147 95.3831 76.9884 95.3831 76.679 95.3831H76.1591V97.845C76.1591 98.6166 76.3943 98.8493 76.877 98.8493V99.0086H74.3397V98.8493C74.8348 98.8493 75.0452 98.6289 75.0452 97.698V92.1128C75.0452 91.5372 74.9338 91.3289 74.5996 91.28C74.612 91.3045 74.612 91.3412 74.612 91.3779C74.612 91.5249 74.5006 91.6474 74.3397 91.6474C74.1912 91.6474 74.0798 91.5249 74.0798 91.3779C74.0798 91.231 74.1912 91.1085 74.3397 91.1085H76.5057C78.7707 91.1085 80.0084 91.3902 80.0084 93.2519C80.0084 94.7829 79.1296 95.2361 77.8919 95.2974C78.6717 95.3586 79.4143 95.3953 80.0084 97.8695V97.8695ZM76.1591 95.2361H76.5057C77.7805 95.2361 78.7707 95.2484 78.7707 93.2519C78.7707 91.231 77.7187 91.2677 76.5057 91.2677H76.1591V95.2361ZM92.9144 91.1207V93.0927V93.1049C92.9144 93.2519 92.803 93.3744 92.6544 93.3744C92.5059 93.3744 92.3821 93.2519 92.3821 93.1049C92.3821 92.958 92.5059 92.8355 92.6544 92.8355C92.6916 92.8355 92.7163 92.8477 92.7535 92.8477C92.5554 91.28 90.835 91.2677 90.6865 91.2677H90.0057V97.9185C90.0057 98.6534 90.3647 98.8616 90.8474 98.8616V99.0086H88.0749V98.8616C88.5576 98.8616 88.8918 98.6534 88.8918 97.9185V91.2677H88.2234C87.8892 91.2677 86.3174 91.28 86.1565 92.8477C86.1812 92.8355 86.2183 92.8355 86.2555 92.8355C86.4164 92.8355 86.5278 92.9457 86.5278 93.0927C86.5278 93.2764 86.4411 93.3621 86.2555 93.3621C86.1069 93.3621 85.9955 93.2519 85.9955 93.0927V91.1207H92.9144V91.1207ZM100.362 93.8521L102.243 95.0769C103.753 96.0445 104.013 97.3183 103.419 98.2369C103.308 98.4084 103.159 98.5554 102.961 98.6901C102.615 98.9228 102.07 99.1433 101.179 99.1433C100.238 99.1433 99.5822 98.9963 99.1367 98.8371C98.8767 98.7513 98.6539 98.6411 98.4807 98.5186V96.363H98.493L98.4807 96.3507C98.4807 96.2037 98.6044 96.0935 98.753 96.0935C98.8891 96.0935 99.0253 96.2037 99.0253 96.3507C99.0253 96.5099 98.8891 96.6202 98.753 96.6202C98.7035 96.6202 98.6663 96.6079 98.6416 96.5957C98.8025 97.8695 99.3594 98.9963 101.179 98.9963C102.912 98.9963 103.11 97.1101 101.798 96.167L99.9164 94.9667C98.852 94.2685 97.8247 93.2642 98.6787 91.9291C98.7901 91.7699 98.951 91.6229 99.149 91.4882C99.4832 91.2555 100.028 91.0472 100.82 91.0472C101.649 91.0472 102.28 91.182 102.726 91.3167C102.986 91.4024 103.221 91.4882 103.407 91.5862V93.4479V93.4724C103.407 93.6071 103.295 93.7418 103.147 93.7418C102.986 93.7418 102.875 93.6071 102.875 93.4724C102.875 93.3254 102.986 93.1907 103.147 93.1907C103.159 93.1907 103.184 93.2152 103.221 93.2152C103.06 92.1986 102.565 91.1942 100.82 91.1942C99.5946 91.1942 98.6663 92.762 100.362 93.8521V93.8521Z" fill="#393E46"/>
</svg>
