<svg width="64" height="64" viewBox="0 0 64 64" fill="none" xmlns="http://www.w3.org/2000/svg">
<path d="M50.47 17.15V46.23C50.4674 47.4554 49.9801 48.6301 49.1145 49.4975C48.249 50.3649 47.0754 50.8548 45.85 50.86H17.27C16.0463 50.8548 14.8743 50.3663 14.009 49.501C13.1437 48.6358 12.6553 47.4637 12.65 46.24V17.15C12.6553 15.9264 13.1437 14.7543 14.009 13.889C14.8743 13.0237 16.0463 12.5353 17.27 12.53H45.85" stroke="#FE5F55" stroke-width="2" stroke-linecap="round" stroke-linejoin="round"/>
<path d="M50.52 14.8201C51.0723 14.8201 51.52 14.3724 51.52 13.8201C51.52 13.2678 51.0723 12.8201 50.52 12.8201C49.9677 12.8201 49.52 13.2678 49.52 13.8201C49.52 14.3724 49.9677 14.8201 50.52 14.8201Z" fill="#FE5F55"/>
<path d="M25.49 32.72C24.2797 32.2837 23.1458 31.6594 22.13 30.87C21.591 30.3944 21.1523 29.8159 20.8398 29.1685C20.5273 28.5212 20.3471 27.8179 20.31 27.1C20.31 26.52 20.11 23.6 21.09 23.67C21.25 23.67 21.39 23.82 21.49 23.94C21.7441 24.2444 22.0145 24.5348 22.3 24.81V24.81C23.4749 25.9459 24.8695 26.8298 26.3982 27.4076C27.9269 27.9854 29.5575 28.2448 31.19 28.17C31.0341 27.2559 31.1387 26.3164 31.4917 25.4589C31.8448 24.6015 32.432 23.8607 33.1863 23.3213C33.9406 22.7819 34.8314 22.4658 35.757 22.4089C36.6825 22.3521 37.6054 22.5569 38.42 23C38.9059 23.338 39.438 23.6041 40 23.79C40.4074 23.8551 40.8226 23.8551 41.23 23.79L44.23 23.45C43.2094 24.6431 42.3488 25.9642 41.67 27.38C41.2002 28.7226 40.8881 30.1153 40.74 31.53C40.434 33.1038 39.8207 34.6019 38.9353 35.9386C38.0499 37.2752 36.9098 38.4243 35.58 39.32C35.58 39.32 35.58 39.32 35.58 39.32C35.2031 39.574 34.8088 39.8013 34.4 40V40C33.8499 40.3085 33.2745 40.5695 32.68 40.78L32.13 40.97L31.52 41.14C28.6796 41.7777 25.7281 41.7297 22.91 41L21.74 40.73L20.37 40.35C22.0509 40.2528 23.6836 39.752 25.13 38.89C25.42 38.72 25.72 38.48 25.68 38.16C25.6595 38.0452 25.6151 37.936 25.5497 37.8395C25.4842 37.743 25.3991 37.6614 25.3 37.6C24.2576 36.6855 23.3576 35.6204 22.63 34.44" stroke="#FE5F55" stroke-width="2" stroke-linecap="round" stroke-linejoin="round"/>
</svg>
