<svg width="64" height="64" viewBox="0 0 64 64" fill="none" xmlns="http://www.w3.org/2000/svg">
<path d="M50.47 17.15V46.23C50.4674 47.4554 49.9801 48.6301 49.1145 49.4975C48.249 50.3649 47.0754 50.8548 45.85 50.86H17.26C16.0363 50.8548 14.8643 50.3663 13.999 49.501C13.1337 48.6358 12.6453 47.4637 12.64 46.24V17.15C12.6453 15.9264 13.1337 14.7543 13.999 13.889C14.8643 13.0237 16.0363 12.5353 17.26 12.53H45.85" stroke="#FE5F55" stroke-width="2" stroke-linecap="round" stroke-linejoin="round"/>
<path d="M50.52 14.8201C51.0723 14.8201 51.52 14.3724 51.52 13.8201C51.52 13.2678 51.0723 12.8201 50.52 12.8201C49.9677 12.8201 49.52 13.2678 49.52 13.8201C49.52 14.3724 49.9677 14.8201 50.52 14.8201Z" fill="#FE5F55"/>
<path d="M25.22 24C24.0162 24.1782 22.9153 24.7792 22.1145 25.6955C21.3137 26.6117 20.8654 27.7832 20.85 29V35C20.8606 36.358 21.4081 37.6566 22.3731 38.6122C23.338 39.5678 24.642 40.1027 26 40.1H30.74" stroke="#FE5F55" stroke-width="2" stroke-linecap="round" stroke-linejoin="round"/>
<path d="M38.43 23.9001H26C25.7483 23.8976 25.4969 23.9211 25.25 23.9701" stroke="#FE5F55" stroke-width="2" stroke-linecap="round" stroke-linejoin="round"/>
<path d="M30.71 40.1001H38.43C39.7829 40.0948 41.0791 39.5565 42.0376 38.6017C42.9961 37.647 43.5395 36.3529 43.55 35.0001V29.0001C43.5497 27.7328 43.0794 26.5106 42.23 25.5701" stroke="#FE5F55" stroke-width="2" stroke-linecap="round" stroke-linejoin="round"/>
<path d="M32.77 30.26L35.79 32L32.77 33.74L29.75 35.49V32V28.52" stroke="#FE5F55" stroke-width="2" stroke-linecap="round" stroke-linejoin="round"/>
</svg>
